<svg version="1.1" class="clearos-svg clearfoundation app-vendor-clearfoundation app-free app-category-reports app-sub-category-performance-and-resources" viewBox="0 0 400 400" preserveAspectRatio="xMinYMin" xmlns="http://www.w3.org/2000/svg" xmlns:xlink= "http://www.w3.org/1999/xlink">
    <path fill="#686868" d="M313.655,272.273c-2.723-0.326-12.242-0.426-14.072-0.278c-46.718,4.499-84.431,52.101-84.431,52.101
        s40.996,31.618,79.552,38.041c4.499,1.014,18.53,1.014,23.221,0.113c31.605-6.889,80.161-39.872,80.161-39.872
        S361.968,278.29,313.655,272.273z M306.619,353.598c-21.151,0-38.273-16.234-38.273-36.26c0-20.027,17.122-36.255,38.273-36.255
        c21.152,0,38.271,16.228,38.271,36.255C344.893,337.361,327.771,353.598,306.619,353.598z"/>
    <path fill="#686868" d="M306.615,308.719c-3.842,0-6.993,3.151-6.993,6.988c0,3.843,3.151,7.001,6.993,7.001c3.841,0,6.987-3.153,6.987-7.001
        C313.604,311.866,310.456,308.719,306.615,308.719z"/>
    <path fill="#686868" d="M284.372,268.393c-1.492-7.098-0.896-11.627,2.03-18.599c5.63-13.433,19.238-22.451,33.88-22.451l2.049,0.054
        c4.748,0.387,9.118-3.271,9.693-8.119c1.459-12.453,1.477-25.121,0.071-37.664c-0.521-4.656-5.952-8.155-10.646-8.155
        c-15.177,0-28.646-8.912-34.293-22.694c-5.771-14.115-2.05-30.578,9.262-40.953c3.562-3.254,3.992-8.703,1.007-12.488
        c-7.769-9.864-16.597-18.774-26.234-26.497c-3.775-3.029-9.313-2.607-12.588,1.017C248.732,82.775,231,86.837,217.298,81.12
        c-14.259-5.998-23.25-20.446-22.371-35.957c0.29-4.872-3.271-9.107-8.128-9.673c-12.371-1.432-24.85-1.477-37.258-0.1
        c-4.801,0.53-8.361,4.666-8.2,9.477c0.54,15.357-8.562,29.553-22.678,35.335c-13.538,5.53-31.146,1.501-40.998-9.334
        c-3.255-3.569-8.704-4.009-12.498-1.052c-9.926,7.787-18.953,16.705-26.792,26.487c-3.058,3.804-2.608,9.316,0.988,12.587
        c11.527,10.439,15.25,27.045,9.261,41.323c-5.718,13.613-19.854,22.388-36.036,22.388c-5.251-0.17-8.992,3.355-9.566,8.129
        c-1.457,12.442-1.474,25.122-0.071,37.665c0.521,4.678,6.113,8.146,10.86,8.146c14.422-0.368,28.268,8.561,34.076,22.693
        c5.791,14.115,2.068,30.567-9.26,40.953c-3.543,3.256-3.993,8.693-1.007,12.479c7.695,9.802,16.525,18.72,26.199,26.507
        c3.795,3.058,9.316,2.627,12.605-0.998c9.909-10.96,27.639-15.016,41.287-9.286c14.295,5.979,23.287,20.426,22.407,35.944
        c-0.288,4.874,3.29,9.117,8.127,9.674c6.329,0.738,12.696,1.107,19.079,1.107c6.06,0,12.121-0.333,18.181-1.007
        c4.804-0.53,8.361-4.666,8.199-9.484c-0.508-14.014,4.049-29.063,16.097-35.62C221.785,306.557,245.25,278.25,284.372,268.393z
         M167.788,255.594c-30.464,0-55.242-24.777-55.242-55.242c0-30.46,24.778-55.241,55.242-55.241
        c30.461,0,55.239,24.779,55.239,55.241C223.027,230.814,198.249,255.594,167.788,255.594z"/>
</svg>
